# xmcd CD database file
#
# Track frame offsets:
#	150
#	16352
#	35565
#	61365
#	80423
#	104731
#	129028
#	156935
#	177725
#	203684
#	220329
#
# Disc length: 3192 seconds
#
# Revision: 0
# Processed by: cddbd v1.5.1PL0 Copyright (c) Steve Scherf et al.
# Submitted via: CDex 1.51
#
DISCID=990c760b
DTITLE=Gabriel Delta and Hurricanes - I Need Your Love
DYEAR=2004
DGENRE=Blues
TTITLE0=Para Que
TTITLE1=One Big Man
TTITLE2=Mas De Una Noche
TTITLE3=Taxi
TTITLE4=I Need Your Love
TTITLE5=I'll Always Play The Blues
TTITLE6=Only With My Soul
TTITLE7=Solo
TTITLE8=Analia
TTITLE9=Dos Copas
TTITLE10=Hurricanes Stomp
EXTD=YEAR: 2004
EXTT0=
EXTT1=
EXTT2=
EXTT3=
EXTT4=
EXTT5=
EXTT6=
EXTT7=
EXTT8=
EXTT9=
EXTT10=
PLAYORDER=
